<?xml version="1.0" encoding="utf-8"?>
<!-- Generator: Adobe Illustrator 23.1.0, SVG Export Plug-In . SVG Version: 6.00 Build 0)  -->
<svg version="1.1" id="Layer_1" xmlns="http://www.w3.org/2000/svg" xmlns:xlink="http://www.w3.org/1999/xlink" x="0px" y="0px"
	 viewBox="0 0 200 200" style="enable-background:new 0 0 200 200;" xml:space="preserve">
<g>
	<g>
		<g>
			<g>
				<path d="M90.9,143.1c-1.1,0-1.8,1.3-1.2,2.2c2.2,3.4,6,5.7,10.3,5.7c4.3,0,8.1-2.3,10.4-5.7c0.6-1-0.1-2.2-1.2-2.2H90.9z"/>
			</g>
		</g>
		<g>
			<path d="M167.3,80.6v40.1c0,1.6-1,3-2.5,3.4l-46.1,13.3c-1.6,0.4-1.2,2.8,0.3,2.8h55c0.8,0,1.4-0.6,1.4-1.4V82.1
				c0-0.8-0.6-1.4-1.4-1.4h-6.7L167.3,80.6L167.3,80.6z"/>
			<path d="M34.7,124.1c-1.5-0.5-2.5-1.8-2.5-3.4V82.1c0-0.8-0.6-1.4-1.4-1.4h-5.4c-0.8,0-1.4,0.6-1.4,1.4v56.6
				c0,0.8,0.6,1.4,1.4,1.4h55.4c1.6,0,1.9-2.3,0.3-2.8L34.7,124.1z"/>
		</g>
		<path d="M74.1,118.1c-0.7-0.7-1-1.6-1-2.5V60.8c0-0.5-0.3-1-0.8-1.2l-13.6-6.8c-0.9-0.5-2,0.2-2,1.2v61.5c0,0.5,0.3,1,0.8,1.2
			L81,128.4c1.4,0.7,2.7-1.2,1.6-2.3L74.1,118.1z"/>
		<path d="M127.1,59.4c-0.5,0.2-0.8,0.7-0.8,1.2v55c0,0.9-0.3,1.8-1,2.5l-8.5,8.1c-1.2,1.1,0.1,3,1.6,2.3l10.1-5l13.4-6.7
			c0.5-0.2,0.8-0.7,0.8-1.2V53.8c0-1-1.1-1.7-2-1.2L127.1,59.4z"/>
		<path d="M147.8,70.4c-0.6,0.1-1.1,0.7-1.1,1.3V117c0,1.3-0.8,2.5-2,3.2l-13.7,6.8c-1.5,0.8-0.6,3.1,1,2.7l31.1-8.6
			c0.6-0.1,1.1-0.7,1.1-1.3V67.8c0-0.9-0.9-1.6-1.8-1.3L147.8,70.4z"/>
		<path d="M55.7,120.1c-1.3-0.6-2-1.8-2-3.2V71.8c0-0.6-0.4-1.2-1.1-1.3l-14.5-4.1c-0.9-0.3-1.8,0.4-1.8,1.3v51.9
			c0,0.6,0.4,1.2,1.1,1.3l31.2,8.6l0,0c1.7,0.5,2.5-1.9,1-2.7L55.7,120.1z"/>
		<g>
			<path d="M98.3,67.5L79.6,49.3c-0.9-0.8-2.4-0.2-2.4,1v65.4c0,0.4,0.1,0.8,0.4,1.1l11.2,10.9l7.4,7.3c0.9,0.8,2.4,0.2,2.4-1V68.5
				C98.8,68.1,98.6,67.7,98.3,67.5z"/>
			<path d="M101.8,68.7v65c0,1.3,1.5,1.9,2.4,1.1l18.7-18c0.3-0.3,0.4-0.6,0.4-1.1v-65c0-1.3-1.5-1.9-2.4-1.1l-18.7,18
				C102,67.9,101.8,68.2,101.8,68.7z"/>
		</g>
	</g>
</g>
</svg>
