<?xml version="1.0" encoding="utf-8"?>
<!-- Generator: Adobe Illustrator 23.1.0, SVG Export Plug-In . SVG Version: 6.00 Build 0)  -->
<svg version="1.1" id="Layer_1" xmlns="http://www.w3.org/2000/svg" xmlns:xlink="http://www.w3.org/1999/xlink" x="0px" y="0px"
	 viewBox="0 0 236 63" style="enable-background:new 0 0 236 63;" xml:space="preserve">
<g>
	<g>
		<g>
			<g>
				<g>
					<path d="M164.8,46.7c-0.4,0-0.6,0.4-0.4,0.7c0.8,1.2,2.1,2,3.5,2c1.5,0,2.8-0.8,3.6-2c0.2-0.3,0-0.7-0.4-0.7H164.8z"/>
				</g>
			</g>
		</g>
		<g>
			<g>
				<path d="M191.1,24.9v13.6c0,0.5-0.4,1-0.9,1.1L174,44.3c-0.5,0.1-0.4,1,0.1,1h19.4c0.3,0,0.5-0.2,0.5-0.5V25.5
					c0-0.3-0.2-0.5-0.5-0.5L191.1,24.9L191.1,24.9L191.1,24.9z"/>
			</g>
			<g>
				<path d="M145.8,39.8c-0.5-0.2-0.9-0.6-0.9-1.1V25.5c0-0.3-0.2-0.5-0.5-0.5h-1.9c-0.3,0-0.5,0.2-0.5,0.5v19.3
					c0,0.3,0.2,0.5,0.5,0.5h19.6c0.6,0,0.7-0.8,0.1-1L145.8,39.8z"/>
			</g>
		</g>
		<g>
			<path d="M159,38.3c-0.2-0.2-0.4-0.6-0.4-0.9V18.1c0-0.2-0.1-0.4-0.3-0.4l-4.8-2.4c-0.3-0.2-0.7,0.1-0.7,0.4v21.7
				c0,0.2,0.1,0.4,0.3,0.4l8.3,4.1c0.5,0.2,1-0.4,0.6-0.8L159,38.3z"/>
		</g>
		<g>
			<path d="M176.9,17.6c-0.2,0.1-0.3,0.2-0.3,0.4v19.4c0,0.3-0.1,0.6-0.4,0.9l-3,2.9c-0.4,0.4,0,1,0.6,0.8l3.6-1.8l4.7-2.4
				c0.2-0.1,0.3-0.2,0.3-0.4V15.6c0-0.4-0.4-0.6-0.7-0.4L176.9,17.6z"/>
		</g>
		<g>
			<path d="M184.2,22c-0.2,0-0.3,0.2-0.3,0.4v15.1c0,0.4-0.3,0.8-0.7,1l-4.5,2.3c-0.5,0.3-0.2,1,0.3,0.9l10.3-2.9
				c0.2,0,0.3-0.2,0.3-0.4V21.1c0-0.3-0.3-0.5-0.6-0.4L184.2,22z"/>
		</g>
		<g>
			<path d="M152.8,38.5c-0.4-0.2-0.7-0.6-0.7-1v-15c0-0.2-0.1-0.4-0.3-0.4l-4.8-1.4c-0.3-0.1-0.6,0.1-0.6,0.4v17.2
				c0,0.2,0.1,0.4,0.3,0.4l10.4,2.9l0,0c0.6,0.2,0.8-0.6,0.3-0.9L152.8,38.5z"/>
		</g>
		<g>
			<g>
				<path d="M167.2,20.8l-6.3-6.1c-0.3-0.3-0.8-0.1-0.8,0.3v22c0,0.1,0,0.3,0.1,0.4L164,41l2.5,2.4c0.3,0.3,0.8,0.1,0.8-0.3v-22
					C167.3,21,167.3,20.9,167.2,20.8z"/>
			</g>
			<g>
				<path d="M168.7,21.2v21.8c0,0.4,0.5,0.6,0.8,0.4l6.3-6.1c0.1-0.1,0.1-0.2,0.1-0.4V15.2c0-0.4-0.5-0.6-0.8-0.4l-6.3,6.1
					C168.8,21,168.7,21.1,168.7,21.2z"/>
			</g>
		</g>
	</g>
</g>
<g>
	<path d="M49.9,37.1c-0.7,0-1.4-0.1-1.9-0.2c-0.5-0.1-1-0.3-1.4-0.5c-0.4-0.2-0.7-0.5-0.9-0.8c-0.2-0.3-0.4-0.7-0.5-1.1
		s-0.2-0.9-0.2-1.4s-0.1-1.1-0.1-1.7V20.2h2.2v11.4c0,0.7,0,1.2,0.1,1.7c0,0.4,0.2,0.8,0.3,1c0.2,0.2,0.5,0.4,0.8,0.5
		c0.4,0.1,0.9,0.1,1.6,0.1V37.1z"/>
	<path d="M54.7,34.9c0.1,0,0.1,0,0.1,0.1v2c0,0.1,0,0.1-0.1,0.1h-5.1c-0.1,0-0.1,0-0.1-0.1v-2c0-0.1,0-0.1,0.1-0.1H54.7z"/>
	<path d="M59.6,34.9c0.1,0,0.1,0,0.1,0.1v2c0,0.1,0,0.1-0.1,0.1h-5.1c-0.1,0-0.1,0-0.1-0.1v-2c0-0.1,0-0.1,0.1-0.1H59.6z"/>
	<path d="M64.5,34.9c0.1,0,0.1,0,0.1,0.1v2c0,0.1,0,0.1-0.1,0.1h-5.1c-0.1,0-0.1,0-0.1-0.1v-2c0-0.1,0-0.1,0.1-0.1H64.5z"/>
	<path d="M69.4,34.9c0.1,0,0.1,0,0.1,0.1v2c0,0.1,0,0.1-0.1,0.1h-5.1c-0.1,0-0.1,0-0.1-0.1v-2c0-0.1,0-0.1,0.1-0.1H69.4z"/>
	<path d="M74.3,34.9c0.1,0,0.1,0,0.1,0.1v2c0,0.1,0,0.1-0.1,0.1h-5.1c-0.1,0-0.1,0-0.1-0.1v-2c0-0.1,0-0.1,0.1-0.1H74.3z"/>
	<path d="M79.2,34.9c0.1,0,0.1,0,0.1,0.1v2c0,0.1,0,0.1-0.1,0.1h-5.1c-0.1,0-0.1,0-0.1-0.1v-2c0-0.1,0-0.1,0.1-0.1H79.2z"/>
	<path d="M84.1,34.9c0.1,0,0.1,0,0.1,0.1v2c0,0.1,0,0.1-0.1,0.1H79c-0.1,0-0.1,0-0.1-0.1v-2c0-0.1,0-0.1,0.1-0.1H84.1z"/>
	<path d="M89,34.9c0.1,0,0.1,0,0.1,0.1v2c0,0.1,0,0.1-0.1,0.1h-5.1c-0.1,0-0.1,0-0.1-0.1v-2c0-0.1,0-0.1,0.1-0.1H89z"/>
	<path d="M102.5,37.1c-0.6,0-1.1-0.1-1.6-0.2c-0.5-0.2-0.9-0.4-1.3-0.7c-0.2,0.3-0.4,0.6-0.7,0.8s-0.5,0.4-0.8,0.5
		c-0.3,0.1-0.5,0.2-0.7,0.2c-0.2,0-0.4,0.1-0.6,0.1c-0.4,0-0.8,0-1.1-0.1s-0.7-0.2-1.1-0.3s-0.8-0.3-1.2-0.5
		c-0.4-0.2-0.9-0.5-1.3-0.7c-0.6,0.8-1.5,1.1-2.5,1.1h-0.8v-2.2h0.8c0.3,0,0.5-0.1,0.7-0.3s0.4-0.5,0.5-0.9c0.1-0.4,0.3-0.8,0.4-1.2
		s0.3-0.9,0.4-1.4c0.2-0.5,0.3-0.9,0.5-1.4s0.5-0.9,0.8-1.2c0.3-0.4,0.7-0.6,1.2-0.9s1-0.3,1.7-0.3c0.8,0,1.4,0.1,2,0.4
		s1,0.7,1.4,1.2c0.4,0.5,0.7,1.1,0.8,1.7c0.2,0.6,0.3,1.3,0.3,2c0,0.5,0.1,0.9,0.3,1.2c0.2,0.3,0.4,0.5,0.6,0.7
		c0.2,0.2,0.5,0.3,0.7,0.3c0.2,0,0.4,0.1,0.5,0.1h0.4v2.2H102.5z M96.8,35.4c0.1,0,0.1,0,0.2,0s0.2,0,0.3-0.1
		c0.1-0.1,0.2-0.1,0.3-0.3c0.1-0.1,0.2-0.3,0.3-0.5c0.1-0.2,0.2-0.5,0.2-0.8c0.1-0.3,0.1-0.7,0.1-1.2c0-0.1,0-0.2,0-0.4
		c0-0.2-0.1-0.4-0.1-0.6c-0.1-0.2-0.1-0.5-0.2-0.7s-0.3-0.5-0.4-0.7c-0.2-0.2-0.4-0.4-0.7-0.5c-0.3-0.1-0.6-0.2-0.9-0.2
		c-0.3,0-0.6,0.1-0.9,0.2c-0.2,0.1-0.4,0.3-0.6,0.5c-0.2,0.2-0.3,0.5-0.4,0.8s-0.2,0.6-0.3,0.9c-0.1,0.3-0.2,0.7-0.3,1.1
		c-0.1,0.4-0.2,0.7-0.3,1.1c0.4,0.2,0.8,0.4,1.1,0.6c0.3,0.2,0.7,0.3,1,0.5c0.3,0.1,0.6,0.2,0.8,0.3C96.3,35.4,96.5,35.4,96.8,35.4z
		"/>
	<path d="M102.6,37.1v-2.2h6.9c0.6,0,1-0.1,1.4-0.2c0.4-0.1,0.6-0.3,0.7-0.5c0.1-0.2,0.1-0.5,0-0.8c-0.1-0.3-0.3-0.7-0.5-1.1
		c-0.2-0.4-0.5-0.8-0.9-1.3s-0.7-0.9-1.1-1.3c-0.4-0.4-0.8-0.9-1.3-1.3c-0.4-0.4-0.9-0.8-1.3-1.2c-0.4-0.4-0.8-0.7-1.1-1
		c-0.3-0.3-0.6-0.5-0.8-0.6l0.2-2.5l10.8-4.8l0.9,2l-9.5,4.1c0.2,0.2,0.5,0.5,0.9,0.9c0.4,0.4,0.8,0.8,1.2,1.2
		c0.4,0.4,0.9,0.9,1.3,1.4c0.4,0.5,0.9,1,1.3,1.5c0.4,0.5,0.8,1,1.1,1.5c0.3,0.5,0.5,0.9,0.7,1.3c0.1,0.3,0.2,0.7,0.3,1
		c0.1,0.3,0.1,0.6,0.1,0.8c0,0.2,0,0.5-0.1,0.7c-0.1,0.2-0.1,0.4-0.2,0.5c-0.1,0.2-0.2,0.4-0.4,0.7c-0.2,0.2-0.4,0.5-0.8,0.7
		c-0.3,0.2-0.7,0.4-1.2,0.5c-0.5,0.1-1.1,0.2-1.8,0.2H102.6z"/>
	<path d="M118.8,41.4c1.2,0,2.2-0.1,3-0.3c0.8-0.2,1.5-0.5,1.9-0.8c0.4-0.3,0.7-0.8,0.9-1.3c0.2-0.5,0.3-1.2,0.3-1.9h-2.2
		c-0.6,0-1.1-0.1-1.7-0.2s-1.1-0.4-1.5-0.8c-0.5-0.4-0.8-0.9-1.1-1.5c-0.3-0.6-0.4-1.4-0.4-2.2c0-0.5,0-1,0.1-1.4
		c0.1-0.4,0.2-0.8,0.3-1.1c0.1-0.3,0.3-0.6,0.5-0.9c0.2-0.2,0.3-0.5,0.5-0.6c0.4-0.4,0.9-0.8,1.5-1c0.6-0.2,1.2-0.4,1.8-0.4
		c0.6,0,1.1,0.1,1.6,0.3c0.5,0.2,0.9,0.4,1.3,0.8c1.1,1,1.6,2.5,1.6,4.7v2.2h1.8v2.2h-1.8c0,1.1-0.2,2.1-0.5,2.9
		c-0.3,0.8-0.8,1.5-1.5,2c-0.7,0.5-1.6,0.9-2.6,1.2c-1,0.3-2.3,0.4-3.8,0.4V41.4z M122.6,29.2c-0.8,0-1.4,0.3-1.8,0.8
		c-0.4,0.6-0.6,1.3-0.6,2.3c0,1,0.3,1.7,0.9,2.1c0.1,0.1,0.3,0.2,0.5,0.2c0.2,0.1,0.3,0.1,0.5,0.1c0.1,0,0.3,0,0.4,0.1s0.2,0,0.3,0
		h2.2v-2.2c0-0.6,0-1.1-0.1-1.5c-0.1-0.4-0.2-0.7-0.3-1c-0.1-0.3-0.3-0.5-0.5-0.6c-0.2-0.1-0.3-0.2-0.5-0.3
		c-0.2-0.1-0.3-0.1-0.5-0.1C122.8,29.2,122.7,29.2,122.6,29.2z"/>
	<path d="M135,27.5c0,0,0,0.2,0.1,0.4s0.1,0.5,0.2,0.8c0.1,0.3,0.1,0.6,0.2,1c0.1,0.4,0.1,0.7,0.2,1.1c0.1,0.4,0.1,0.7,0.1,1.1
		c0,0.3,0.1,0.6,0.1,0.9c0,0.8-0.1,1.4-0.4,2c-0.2,0.5-0.6,1-1,1.4c-0.4,0.4-0.8,0.6-1.3,0.8c-0.5,0.2-1,0.3-1.5,0.3h-3v-2.2h3
		c0.1,0,0.3,0,0.5-0.1c0.2,0,0.4-0.1,0.6-0.3s0.4-0.4,0.6-0.6c0.2-0.3,0.2-0.7,0.2-1.2c0-0.2,0-0.4,0-0.7c0-0.3-0.1-0.5-0.1-0.9
		s-0.1-0.6-0.1-0.9c-0.1-0.3-0.1-0.6-0.2-0.9c-0.1-0.3-0.1-0.5-0.2-0.8s-0.1-0.4-0.1-0.5L135,27.5z M130.8,41.4l2-2l2.1,2.1l-2,2
		L130.8,41.4z"/>
</g>
</svg>
